<?xml version="1.0" encoding="UTF-8" standalone="no"?>
<svg
   xmlns:dc="http://purl.org/dc/elements/1.1/"
   xmlns:cc="http://creativecommons.org/ns#"
   xmlns:rdf="http://www.w3.org/1999/02/22-rdf-syntax-ns#"
   xmlns:svg="http://www.w3.org/2000/svg"
   xmlns="http://www.w3.org/2000/svg"
   version="1.1"
   id="svg2"
   viewBox="0 0 277.053 45.458352"
   height="12.829357mm"
   width="78.190514mm">
  <defs
     id="defs4" />
  <metadata
     id="metadata7">
    <rdf:RDF>
      <cc:Work
         rdf:about="">
        <dc:format>image/svg+xml</dc:format>
        <dc:type
           rdf:resource="http://purl.org/dc/dcmitype/StillImage" />
        <dc:title></dc:title>
      </cc:Work>
    </rdf:RDF>
  </metadata>
  <g
     transform="translate(-115.92022,-86.097984)"
     id="layer1">
    <g
       id="g3461">
      <rect
         style="opacity:1;fill:none;fill-opacity:1;stroke:none;stroke-width:2.5;stroke-linecap:round;stroke-linejoin:round;stroke-miterlimit:4;stroke-dasharray:none;stroke-dashoffset:0;stroke-opacity:1"
         id="rect3446"
         width="277.05301"
         height="45.458351"
         x="115.92022"
         y="86.097984"
         rx="6.25"
         ry="6.25" />
      <g
         id="g3448"
         transform="translate(-29.735968,-18)">
        <path
           id="path3440"
           d="m 324.70139,142.47804 c -0.19695,-0.19696 -0.35993,-4.65818 -0.36217,-9.91383 l -0.004,-9.55572 -2.69994,5.28427 c -4.0569,7.94007 -4.13094,8.06584 -4.92845,8.37187 -0.92343,0.35436 -1.40776,-0.27906 -2.76492,-3.61602 -0.59101,-1.45318 -1.9615,-4.06889 -3.04553,-5.8127 l -1.97095,-3.17057 0.24067,8.45484 c 0.13238,4.65016 0.13361,8.75207 0.003,9.11537 -0.13086,0.36329 -0.90675,0.66053 -1.72418,0.66053 -1.47451,0 -1.48873,-0.0323 -1.80036,-4.09531 -0.17276,-2.25242 -0.27633,-8.20275 -0.23017,-13.22296 l 0.0839,-9.12765 1.25332,-0.31457 c 1.24486,-0.31244 3.32444,0.97581 3.32444,2.05941 0,0.27479 1.44629,3.50759 3.21399,7.18398 l 3.21398,6.68434 2.42491,-4.75584 c 1.3337,-2.61572 3.04076,-6.40398 3.79346,-8.41836 1.13012,-3.02443 1.62028,-3.72985 2.81342,-4.04894 0.79467,-0.21253 1.57049,-0.18315 1.72404,0.0653 0.42609,0.68942 0.75756,26.65082 0.34843,27.28911 -0.47235,0.73691 -2.45156,1.33848 -2.9066,0.88345 z m 11.28528,-0.5791 c -1.00734,-0.50816 -2.28887,-1.71599 -2.84786,-2.68407 -1.08312,-1.87582 -1.78726,-7.9763 -1.19364,-10.34146 0.52831,-2.10497 3.31305,-4.91534 5.81867,-5.87225 5.34536,-2.04141 10.95071,2.56947 10.2735,8.45082 -0.22541,1.95764 -1.2459,2.26694 -7.70912,2.33659 -4.88681,0.0527 -4.88795,0.053 -4.88795,1.41439 0,0.81306 0.64861,2.01033 1.60979,2.97151 1.38089,1.38089 1.88104,1.56578 3.51727,1.30026 1.0491,-0.17025 2.53729,-0.91295 3.30707,-1.65044 1.67063,-1.60057 2.44221,-1.68369 3.16104,-0.34053 0.41123,0.76839 0.28218,1.32228 -0.55649,2.38848 -2.32529,2.95612 -6.89868,3.83952 -10.49228,2.0267 z m 8.96331,-11.88879 c -10e-4,-0.65393 -0.45404,-1.93033 -1.00657,-2.83645 -1.82182,-2.98766 -5.48456,-2.76854 -7.44407,0.44536 -1.98879,3.26192 -1.66029,3.58005 3.69677,3.58005 4.58029,0 4.75577,-0.0439 4.75387,-1.18896 z m 20.22117,12.3696 c -0.3332,-0.20725 -0.63455,-3.25266 -0.74545,-7.53336 -0.20549,-7.93203 -0.56661,-8.93155 -3.22692,-8.93155 -1.13898,0 -2.09537,0.53554 -3.37007,1.88712 l -1.77978,1.88712 -0.008,5.64297 c -0.004,3.10363 -0.20859,5.95924 -0.45366,6.34581 -0.25307,0.39921 -1.10565,0.6275 -1.97351,0.52843 l -1.52795,-0.17442 -0.0158,-9.34021 -0.0158,-9.34021 1.27341,-0.24342 c 1.01549,-0.19413 1.386,0.0549 1.82932,1.22936 l 0.55592,1.47279 2.07195,-1.66506 c 1.70503,-1.3702 2.54046,-1.66506 4.71766,-1.66506 2.3388,0 2.81212,0.19933 4.08017,1.71824 l 1.43445,1.71824 1.21391,-1.29215 c 2.95481,-3.14525 7.18419,-3.59561 9.60158,-1.02241 1.46616,1.56065 1.85435,4.54811 1.62228,12.48468 -0.1475,5.04403 -0.28444,5.74353 -1.22274,6.24569 -2.15615,1.15393 -2.57437,-0.0881 -2.57437,-7.64559 0,-5.43639 -0.17929,-7.20745 -0.8226,-8.12592 -1.43618,-2.05043 -4.01819,-1.37872 -6.14231,1.59793 -1.05887,1.48384 -1.26168,2.53698 -1.48993,7.73669 -0.24132,5.49762 -0.35985,6.05426 -1.36826,6.4256 -0.60722,0.22361 -1.35573,0.25002 -1.66334,0.0587 z m 23.65824,-0.48081 c -1.00733,-0.50816 -2.28887,-1.71599 -2.84786,-2.68407 -1.08312,-1.87582 -1.78726,-7.9763 -1.19364,-10.34146 0.52831,-2.10497 3.31305,-4.91534 5.81868,-5.87225 5.34535,-2.04141 10.9507,2.56947 10.27349,8.45082 -0.22541,1.95764 -1.24589,2.26694 -7.70912,2.33659 -4.88681,0.0527 -4.88795,0.053 -4.88795,1.41439 0,0.81306 0.64862,2.01033 1.60979,2.97151 1.38089,1.38089 1.88104,1.56578 3.51727,1.30026 1.04911,-0.17025 2.53729,-0.91295 3.30707,-1.65044 1.67063,-1.60057 2.44221,-1.68369 3.16104,-0.34053 0.41123,0.76839 0.28218,1.32228 -0.55649,2.38848 -2.32529,2.95612 -6.89868,3.83952 -10.49228,2.0267 z m 8.96331,-11.88879 c -0.001,-0.65393 -0.45404,-1.93033 -1.00657,-2.83645 -1.82182,-2.98766 -5.48456,-2.76854 -7.44407,0.44536 -1.98879,3.26192 -1.66028,3.58005 3.69677,3.58005 4.58029,0 4.75577,-0.0439 4.75387,-1.18896 z m 9.71357,12.08737 c -2.94714,-1.34041 -4.23513,-4.2387 -2.51725,-5.66441 0.74087,-0.61487 1.06075,-0.44943 2.42918,1.25636 1.30405,1.62553 1.90902,1.96313 3.5063,1.95669 2.94828,-0.0119 4.57249,-1.04669 4.57249,-2.91314 0,-1.69004 -0.8046,-2.23829 -6.3157,-4.30348 -3.47127,-1.3008 -4.88852,-3.5238 -3.98736,-6.25433 0.7252,-2.19737 3.65001,-3.95936 6.57233,-3.95936 4.05352,0 7.57074,2.52561 7.07828,5.08271 -0.28373,1.47332 -2.76783,1.35411 -2.98121,-0.14307 -0.35432,-2.48612 -5.7429,-2.89362 -7.18082,-0.54303 -0.78762,1.28755 0.91232,2.66994 4.60243,3.74269 6.44589,1.87387 8.17846,8.47283 2.93629,11.18366 -2.30721,1.19311 -6.7008,1.47478 -8.71496,0.55871 z"
           style="fill:#000000" />
        <path
           id="path3369"
           transform="translate(145.65619,104.09798)"
           d="M 25.207031 5.5058594 C 15.962131 5.4842694 11.531467 5.6094188 10.623047 5.9179688 C 8.7408369 6.5572688 6.5773238 8.7517681 5.9648438 10.642578 C 5.6575237 11.591318 5.5287219 16.072512 5.5449219 25.232422 C 5.5661219 37.189592 5.6318119 38.575389 6.2324219 39.730469 C 6.6263319 40.488029 7.1832575 41.207758 7.8359375 41.830078 L 13.386719 36.384766 L 20.876953 36.376953 L 29.673828 36.333984 L 38.470703 36.289062 C 40.184253 35.708893 42.345991 34.086976 43.650391 31.197266 C 44.304631 29.507126 44.376901 12.617978 43.738281 10.705078 C 43.130771 8.8853281 41.606644 7.1256375 39.871094 6.2421875 C 38.586854 5.5884375 37.507511 5.5345594 25.207031 5.5058594 z M 32.642578 13.212891 C 34.772171 13.226519 36.210302 13.257178 36.265625 13.3125 C 36.340785 13.38763 36.400438 16.855858 36.398438 21.017578 L 36.394531 28.583984 L 28.619141 28.597656 L 20.84375 28.611328 L 13.314453 36.148438 C 13.061733 35.860727 13.216136 13.721374 13.472656 13.464844 C 13.640859 13.296656 26.253801 13.172005 32.642578 13.212891 z "
           style="fill:#00aad4" />
        <path
           d="m 228.73562,141.49486 c -2.22665,-0.81404 -3.73972,-2.12765 -3.73972,-3.97995 l -0.0792,-12.42198 -0.0792,-12.42199 2.20673,0 2.20673,0 0.002,11.32391 c 8.3e-4,6.97996 0.11086,11.71757 0.28653,12.35012 0.34722,1.25023 1.00555,1.63716 2.76239,1.62355 l 1.34185,-0.0104 0,1.73273 0,1.73274 -1.02945,0.17016 c -1.30629,0.21591 -2.69477,0.18051 -3.87817,-0.0989 z m 55.85974,0.57161 c -1.17229,-0.3441 -2.80664,-1.77816 -3.43886,-3.01742 -0.7605,-1.49071 -1.07897,-4.12467 -1.08527,-8.97605 l -0.005,-4.18641 -1.92164,0 -1.92163,0 0,-1.78438 0,-1.78437 1.91095,0 1.91094,0 0.0793,-2.40204 0.0793,-2.40205 2.26478,-0.0797 2.26478,-0.0797 0,2.48178 0,2.48177 3.29423,0 3.29422,0 0,1.78438 0,1.78437 -3.29422,0 -3.29423,0 5.5e-4,5.14723 c 5.5e-4,5.63388 0.23226,6.67862 1.64669,7.42185 0.6843,0.35957 3.55115,0.30826 4.84971,-0.0868 0.54639,-0.16623 0.61003,-0.058 0.78396,1.33417 0.10411,0.8333 0.11335,1.63797 0.0205,1.78816 -0.44834,0.72543 -5.57603,1.122 -7.43857,0.57529 z m -44.35621,-1.04776 c -1.75152,-0.61819 -3.88007,-2.83752 -4.68509,-4.88491 -0.53244,-1.35415 -0.64699,-2.16281 -0.65989,-4.65831 -0.0139,-2.69776 0.0605,-3.18202 0.69846,-4.54209 0.99251,-2.11605 2.19981,-3.39189 4.11556,-4.3492 3.38064,-1.68932 7.52162,-1.82791 11.79706,-0.39482 l 2.31513,0.77602 0.13726,7.22865 c 0.12821,6.75169 0.17242,7.25433 0.67014,7.6179 0.29308,0.21409 0.75633,0.38925 1.02944,0.38925 0.41822,0 0.49657,0.2356 0.49657,1.49304 l 0,1.49303 -1.18622,0.17788 c -2.53898,0.38075 -4.57867,-0.87129 -4.57867,-2.81053 l 0,-0.94514 -0.89408,1.18805 c -1.36546,1.81444 -3.34175,2.70342 -5.94949,2.67622 -1.14307,-0.0119 -2.63084,-0.21668 -3.30618,-0.45504 z m 5.78511,-3.67788 c 1.42375,-0.47502 2.67734,-1.82115 3.13682,-3.36838 0.26362,-0.88769 0.40426,-2.57811 0.40426,-4.85891 l 0,-3.49763 -0.94129,-0.31066 c -0.51771,-0.17085 -1.79463,-0.31868 -2.83759,-0.32849 -4.22493,-0.0397 -6.47905,2.23018 -6.47127,6.51668 0.003,1.61139 0.13658,2.18407 0.78991,3.38445 1.2179,2.23769 3.61044,3.23321 5.91916,2.46294 z m -45.87232,-10.39491 0,-14.27498 6.51982,0.003 c 7.0406,0.004 8.42469,0.19522 10.59579,1.46757 4.50713,2.64135 6.02579,8.77121 3.39893,13.71935 -0.94659,1.78306 -2.44654,3.15315 -4.47705,4.08945 -1.21771,0.56151 -1.8441,0.63176 -6.3607,0.71335 l -5.00997,0.0905 0,4.23324 0,4.23324 -2.33341,0 -2.33341,0 0,-14.27498 z m 13.31417,1.34239 c 1.63699,-0.44972 3.29646,-2.29753 3.68331,-4.10135 0.62755,-2.92617 -0.73307,-5.94035 -3.08352,-6.83092 -0.42589,-0.16136 -2.67481,-0.2928 -5.00997,-0.2928 l -4.23717,0 0,5.7649 0,5.7649 3.77464,-0.002 c 2.07605,-8.3e-4 4.26877,-0.13728 4.87271,-0.3032 z m 44.80173,13.09421 c 0,-0.45852 2.61532,-4.64238 6.64469,-10.62983 l 3.233,-4.80408 -4.66433,-0.0751 -4.66433,-0.0751 0,-1.77789 0,-1.77789 7.96105,0 c 5.36049,0 7.96105,0.0939 7.96105,0.2873 0,0.28665 -7.04712,11.24753 -8.9049,13.85043 l -0.97968,1.37259 4.9423,0.0748 4.94228,0.0748 0,1.91544 0,1.91544 -8.23556,0 c -6.50281,0 -8.23557,-0.0738 -8.23557,-0.35093 z m 36.59312,-9.18642 0,-9.917 2.33342,0 2.33341,0 0,9.917 0,9.917 -2.33341,0 -2.33342,0 z"
           style="fill:#6f8a91"
           id="path3347" />
        <circle
           r="2.7037337"
           cy="115.86791"
           cx="297.15121"
           id="path3394"
           style="opacity:1;fill:#00aad4;fill-opacity:1;stroke:none;stroke-width:2.5;stroke-linecap:round;stroke-linejoin:round;stroke-miterlimit:4;stroke-dasharray:none;stroke-dashoffset:0;stroke-opacity:1" />
      </g>
    </g>
  </g>
</svg>
